<?xml version="1.0" encoding="iso-8859-1"?>
<svg xmlns="http://www.w3.org/2000/svg" xmlns:xlink="http://www.w3.org/1999/xlink" version="1.1" id="Capa_1" x="0px" y="0px" viewBox="0 0 333.662 333.662" style="enable-background:new 0 0 333.662 333.662;" xml:space="preserve" height="16px" width="16px" fill="#ffffff">
<g>
	<path d="M288.681,5.733H44.988C20.18,5.733,0,25.913,0,50.721v164.418c0,24.801,20.18,44.988,44.988,44.988h5.219l-0.488,67.803   l98.138-67.803h140.818c24.801,0,44.988-20.187,44.988-44.988V50.721C333.668,25.913,313.482,5.733,288.681,5.733z    M320.815,215.138c0,17.719-14.422,32.134-32.134,32.134H143.852l-81.1,56.023l0.405-56.029H44.988   c-17.719,0-32.134-14.415-32.134-32.134V50.721c0-17.719,14.415-32.134,32.134-32.134h243.686   c17.712,0,32.134,14.415,32.134,32.134v164.418H320.815z M68.124,72.289H265.75v12.854H68.124V72.289z M68.124,126.647H265.75   v12.854H68.124V126.647z M68.124,181.012h146.21v12.854H68.124V181.012z"/>
</g>
</svg>